<svg xmlns="http://www.w3.org/2000/svg" fill="#1e3a8a" viewBox="0 0 53.92 63.97"><title>business man</title><g id="Layer_2" data-name="Layer 2"><g id="business_man" data-name="business man"><path d="M38.86,39.15a16.2,16.2,0,0,0,5.78-9.72,5.42,5.42,0,0,0,3.7-2.78,6.45,6.45,0,0,0,0-6.22,1,1,0,0,0-.87-.5h-.69V17.79A16.76,16.76,0,0,0,35.52,1.45C28.94-1.06,21-.22,17.48,3.29,5.71,5.25,6.11,14.82,6.31,19.45c0,.17,0,.32,0,.47H6.28a1,1,0,0,0-.87.5,6.46,6.46,0,0,0,.08,6.32,5.36,5.36,0,0,0,3.79,2.71,16.27,16.27,0,0,0,5.78,9.69C5.27,42.48.21,49.11,0,58.87a1,1,0,0,0,.67,1,77.72,77.72,0,0,0,18.55,3.79,1,1,0,0,0,.41.09,1,1,0,0,0,.19,0q2,.16,4,.23a1,1,0,0,0,.26,0,1,1,0,0,0,.21,0c.89,0,1.78.05,2.68.05s1.72,0,2.57,0l.16,0a1,1,0,0,0,.21,0q2.2-.07,4.38-.25h.07a1,1,0,0,0,.18,0,77.82,77.82,0,0,0,18.72-3.81,1,1,0,0,0,.67-.95C53.92,49.06,48.72,42.27,38.86,39.15ZM35.27,51.52l4,4.2-5.42,6c-.92.07-1.85.13-2.78.17l1.36-4a1,1,0,0,0,0-.53l-2.12-9.86,2.12-4.81c.46-.15.92-.32,1.37-.51l5.29,4.73-3.81,3.17a1,1,0,0,0-.08,1.46Zm-6.58-5.15H25.57l-1.49-3.06a18.08,18.08,0,0,0,2.86.27H27a16.89,16.89,0,0,0,3-.28Zm-4.8,1.1L21.33,57.1a1,1,0,0,0,0,.56l1.34,4.19c-.88,0-1.75-.09-2.62-.16l-5.42-6,4.05-4.2a1,1,0,0,0-.08-1.46L14.81,46.9l5.31-4.69c.47.19,1,.36,1.45.51Zm22.71-21.8a3.62,3.62,0,0,1-1.77,1.63V21.92h2.07A4.49,4.49,0,0,1,46.59,25.67ZM18.12,5.21a1,1,0,0,0,.6-.32C21.5,1.77,28.87,1.05,34.81,3.32c3.74,1.43,10,5.2,10,14.47v2.14H29.94c-5.61,0-7-1.67-9.77-5.44a1,1,0,0,0-.81-.42.88.88,0,0,0-.81.42l-.93,1.33c-2.2,3.16-2.86,4.11-6.46,4.11H8.33c0-.18,0-.37,0-.56C8.11,14.65,7.77,6.77,18.12,5.21ZM7.22,25.75a4.5,4.5,0,0,1-.32-3.83H9.08v5.34s0,.06,0,.09A3.53,3.53,0,0,1,7.22,25.75Zm3.86,1.52V21.93h.07c4.65,0,5.81-1.66,8.11-5l.12-.18c2.49,3.3,4.66,5.15,10.56,5.15H42.82v5.34c0,4.33-2.49,8.59-6.67,11.41l-.1.07A16.59,16.59,0,0,1,27,41.58C18.65,41.52,11.08,34.7,11.08,27.27Zm6,13.35c.36.23.74.44,1.11.64l-5.55,4.91a1,1,0,0,0,0,1.52l3.88,3.23-4,4.1a1,1,0,0,0,0,1.37l4.57,5A75,75,0,0,1,2,58.18C2.46,49.22,7.39,43.47,17.05,40.62ZM24.8,61.93l-1.47-4.6,2.38-9h2.81l2,9.12L29,61.94Q26.89,62,24.8,61.93Zm12-.52,4.58-5a1,1,0,0,0,0-1.37l-4-4.1,3.87-3.23a1,1,0,0,0,0-1.51l-5.53-4.95c.33-.18.66-.38,1-.59C43.66,42.46,51.59,47,51.91,58.17A74.9,74.9,0,0,1,36.85,61.41Z"/><path d="M19,24.92a4.62,4.62,0,0,0-3.32,1.55A1,1,0,1,0,17,27.9a2.92,2.92,0,0,1,1.89-1,2.59,2.59,0,0,1,1.72,1,1,1,0,0,0,1.45-1.38A4.46,4.46,0,0,0,19,24.92Z"/><path d="M32.62,28.17a2.8,2.8,0,0,1,1.9-1,2.58,2.58,0,0,1,1.71,1,1,1,0,1,0,1.45-1.38,4.46,4.46,0,0,0-3.12-1.58,4.61,4.61,0,0,0-3.33,1.55,1,1,0,1,0,1.39,1.43Z"/><path d="M30.83,36.36a1,1,0,0,0-1.3-1.52c-1.61,1.39-3.12,1.38-4.88,0a1,1,0,1,0-1.25,1.56,6.07,6.07,0,0,0,3.76,1.5A5.61,5.61,0,0,0,30.83,36.36Z"/></g></g></svg>