<svg xmlns="http://www.w3.org/2000/svg" fill="#1e3a8a" viewBox="0 0 64 62.99"><title>startup_512px</title><g id="Layer_2" data-name="Layer 2"><g id="startup"><path d="M60.49,54.1V21.2a4.69,4.69,0,0,0-4.68-4.68H40.63C39,7,34.42.74,32.14,0L32,0a1.42,1.42,0,0,0-.44,0l-.12,0C29.23.74,24.64,7,23,16.52H8.47A4.69,4.69,0,0,0,3.79,21.2V54.05A4.5,4.5,0,0,0,4.51,63h55a4.5,4.5,0,0,0,1-8.89ZM18,48.74a4.1,4.1,0,0,1,7.08-1.57,7.17,7.17,0,0,0-.4,1.57ZM31.85,44.5A5.25,5.25,0,0,1,37,48.74H26.7A5.25,5.25,0,0,1,31.85,44.5ZM39,48.74A7.18,7.18,0,0,0,38.55,47a4.11,4.11,0,0,1,7.06,1.74Zm8.65,0A6.11,6.11,0,0,0,37.5,45.22a7.29,7.29,0,0,0-1.42-1.35V40.33a1,1,0,0,0-2,0v2.52a7.18,7.18,0,0,0-4.47,0V40.33a1,1,0,0,0-2,0v3.54a7.29,7.29,0,0,0-1.51,1.47,6.11,6.11,0,0,0-10.16,3.39H11V24H17.8a18.57,18.57,0,0,0-1.33,6.44,1,1,0,0,0,1,1h8.82l-1.05,3.89a1,1,0,0,0,1,1.26H37.73a1,1,0,0,0,1-1.26l-1.05-3.89H46.2a1,1,0,0,0,1-1A18.61,18.61,0,0,0,45.87,24h7.5V48.74ZM22.58,20.38a42.85,42.85,0,0,0,.34,9.08H18.54C18.9,25.37,20.64,22,22.58,20.38ZM36.43,34.61H27.51l.85-3.15h7.21Zm8.71-5.15H40.76a42.84,42.84,0,0,0,.34-9.08C43,22,44.77,25.36,45.13,29.46ZM31.82,2.06c2.16,1.23,9.24,11.88,6.92,27.4H24.93C22.61,13.9,29.73,3.22,31.82,2.06ZM8.47,18.52H21.72A11.79,11.79,0,0,0,18.78,22H10a1,1,0,0,0-1,1V49.74a1,1,0,0,0,1,1H54.36a1,1,0,0,0,1-1V23a1,1,0,0,0-1-1H44.9A11.79,11.79,0,0,0,42,18.52H55.81a2.68,2.68,0,0,1,2.68,2.68V54H5.79V21.2A2.68,2.68,0,0,1,8.47,18.52ZM59.49,61h-55a2.51,2.51,0,1,1,0-5h55a2.51,2.51,0,1,1,0,5Z"/><path d="M31.69,21.12A4.1,4.1,0,1,0,27.58,17,4.11,4.11,0,0,0,31.69,21.12Zm0-6.21A2.1,2.1,0,1,1,29.58,17,2.11,2.11,0,0,1,31.69,14.92Z"/></g></g></svg>