<svg xmlns="http://www.w3.org/2000/svg" fill="#1e3a8a" viewBox="0 0 52.58 64"><title>strategy</title><g id="Layer_2" data-name="Layer 2"><g id="strategy"><path d="M8.4,47.78a1,1,0,0,0,1,1H42.68a1,1,0,0,0,0-2H9.4A1,1,0,0,0,8.4,47.78Z"/><path d="M13.47,53.39H9.4a1,1,0,0,0,0,2h4.07a1,1,0,0,0,0-2Z"/><path d="M23.21,53.39H19.14a1,1,0,0,0,0,2h4.07a1,1,0,0,0,0-2Z"/><path d="M32.94,53.39H28.88a1,1,0,0,0,0,2h4.07a1,1,0,0,0,0-2Z"/><path d="M42.68,53.39H38.61a1,1,0,0,0,0,2h4.07a1,1,0,0,0,0-2Z"/><path d="M34.08,38.42a1,1,0,0,0,1.41,0l1.33-1.33,1.33,1.33A1,1,0,0,0,39.57,37l-1.33-1.33,1.33-1.33a1,1,0,0,0-1.41-1.41l-1.33,1.33-1.33-1.33a1,1,0,0,0-1.41,1.41l1.33,1.33L34.08,37A1,1,0,0,0,34.08,38.42Z"/><path d="M14.41,33.4a3.59,3.59,0,0,0-3.51,5.54,3.55,3.55,0,0,0,2.94,1.58,3.58,3.58,0,0,0,2.38-6.25c2-4.67,5.69-5.16,8.49-4.7a9.59,9.59,0,0,0,9.91-5.21l1.33.75A1,1,0,0,0,37.42,24l-.79-4a1,1,0,0,0-1.32-.75l-3.82,1.4a1,1,0,0,0-.15,1.81l1.53.86A7.63,7.63,0,0,1,25,27.59C20.21,26.81,16.39,28.91,14.41,33.4Zm1,3.83a1.58,1.58,0,0,1-1.83,1.26,1.54,1.54,0,0,1-1-.66,1.6,1.6,0,0,1,1.3-2.48l.29,0,.21.07a1,1,0,0,0,.27.16l.09,0A1.59,1.59,0,0,1,15.38,37.23Z"/><path d="M14,16.77a1,1,0,0,0,0,1.41l1.33,1.33L14,20.85a1,1,0,1,0,1.41,1.41l1.33-1.33,1.33,1.33a1,1,0,0,0,1.41-1.41l-1.33-1.33,1.33-1.33a1,1,0,0,0-1.41-1.41L16.73,18.1,15.4,16.77A1,1,0,0,0,14,16.77Z"/><path d="M38.36,17.14a3.57,3.57,0,1,0-2.26-1.51A3.55,3.55,0,0,0,38.36,17.14Zm-.83-3.82a1.58,1.58,0,0,1,.67-1,1.54,1.54,0,0,1,.86-.26l.3,0a1.54,1.54,0,0,1,1,.66,1.61,1.61,0,0,1-.44,2.22,1.54,1.54,0,0,1-2.14-.42A1.58,1.58,0,0,1,37.53,13.32Z"/><path d="M51.58,0H13.87a1,1,0,0,0-.37.07l-.12.07a1,1,0,0,0-.16.09L.35,11.15l0,0a1,1,0,0,0-.17.23,1,1,0,0,0-.07.1,1,1,0,0,0-.09.4H0V63a1,1,0,0,0,1,1H51.58a1,1,0,0,0,1-1V1A1,1,0,0,0,51.58,0ZM12.87,3.16v7.77H3.72ZM50.58,62H2V12.91l11.87,0h0a1,1,0,0,0,1-1V2H50.58Z"/></g></g></svg>