<svg width="1234" height="1245" viewBox="0 0 1234 1245" fill="none" xmlns="http://www.w3.org/2000/svg">
<path d="M295.003 716.464C489.383 723.004 809.089 703.805 938.949 657.377C1070.05 609.892 1090.75 253.327 1003.21 162.211C914.512 72.1694 665.772 44.6295 542.073 36.7788C233.793 17.2135 -42.7521 40.6707 5.50364 314.548C55.5995 598.809 84.586 709.357 295.003 716.464Z" fill="#CBE6F8"/>
<path d="M390.224 678.881C390.224 678.881 425.875 781.216 583.604 802.577C583.604 802.577 471.036 677.397 517.745 588.433C545.755 535.037 390.224 678.881 390.224 678.881Z" fill="#CBE6F8"/>
<path d="M342.78 1239.87C335.628 1228.87 344.523 1219.52 378.505 1214.55C415.592 1209.12 451.029 1212.81 480.18 1219.53C411.424 1186.22 331.259 1139.44 404.447 1134.02C427.272 1132.34 462.367 1143.39 501.397 1160.65C457.859 1125.22 433.901 1096.08 460.283 1090.67C484.769 1085.65 534.716 1114.47 587.872 1152.72C557.581 1120.67 540.043 1092.69 553.648 1079.49C564.752 1068.72 588.44 1081.08 615.687 1103.99C614.472 1083.85 622.935 1071.69 642.251 1074.12C660.417 1076.42 675.136 1099.73 685.64 1127.7C703.072 1084.32 749.104 1057.8 795.54 1070.97C850.093 1086.43 806.271 1190.43 781.865 1239.87H342.78Z" fill="#B5D8F3"/>
<path d="M624.529 1194.16L627.02 1193.42C609.311 1134.11 577.401 1047.46 525.961 971.403C495.159 925.859 471.595 905.456 471.36 905.256L469.671 907.225C469.904 907.425 493.265 927.671 523.888 972.972C552.156 1014.79 592.561 1087.1 624.529 1194.16Z" fill="#B5D8F3"/>
<path d="M637.731 1171.15L640.317 1170.94C630.292 1047.44 568.003 941.275 567.373 940.215L565.145 941.541C565.768 942.595 627.752 1048.27 637.731 1171.15Z" fill="#B5D8F3"/>
<path d="M591.136 1182.77L593.723 1182.56C588.671 1123.2 563.533 1085.61 543.332 1064.51C521.415 1041.63 500.351 1032.67 500.145 1032.59L499.144 1034.98C499.349 1035.07 519.996 1043.87 541.545 1066.4C561.421 1087.18 586.159 1124.24 591.136 1182.77Z" fill="#B5D8F3"/>
<path d="M458.953 889.808C441.949 901.772 432.105 917.055 436.952 923.941C441.796 930.831 459.511 926.713 476.509 914.745C493.511 902.783 503.353 887.499 498.507 880.609C493.661 873.725 475.951 877.841 458.953 889.808Z" fill="#B5D8F3"/>
<path d="M464.943 898.319C459.545 902.116 456.413 906.971 457.955 909.156C459.496 911.344 465.12 910.039 470.516 906.239C475.913 902.437 479.043 897.587 477.504 895.403C475.964 893.213 470.34 894.519 464.943 898.319Z" fill="#395FB5"/>
<path d="M561.448 934.036C554.368 939.016 550.268 945.384 552.285 948.251C554.3 951.116 561.677 949.401 568.753 944.425C575.833 939.439 579.932 933.076 577.915 930.213C575.895 927.341 568.523 929.053 561.448 934.036Z" fill="#B5D8F3"/>
<path d="M563.939 937.58C561.689 939.163 560.389 941.184 561.028 942.096C561.668 943.003 564.011 942.46 566.263 940.877C568.504 939.293 569.808 937.277 569.167 936.364C568.527 935.453 566.184 935.997 563.939 937.58Z" fill="#395FB5"/>
<path d="M493.353 1028.55C486.219 1037.13 483.257 1046.44 486.732 1049.33C490.204 1052.21 498.811 1047.59 505.94 1039.02C513.072 1030.43 516.033 1021.14 512.561 1018.24C509.08 1015.36 500.483 1019.97 493.353 1028.55Z" fill="#B5D8F3"/>
<path d="M497.641 1032.12C495.385 1034.85 494.441 1037.8 495.547 1038.72C496.648 1039.64 499.384 1038.17 501.647 1035.45C503.908 1032.72 504.853 1029.77 503.747 1028.85C502.639 1027.93 499.911 1029.4 497.641 1032.12Z" fill="#395FB5"/>
<path d="M537.205 1169.04C534.872 1168.68 533.251 1166.5 533.604 1164.16C533.961 1161.81 536.152 1160.2 538.489 1160.55C540.827 1160.91 542.441 1163.1 542.088 1165.44C541.733 1167.78 539.551 1169.39 537.205 1169.04ZM546.961 1166.09C546.671 1165.85 546.375 1165.64 546.079 1165.43C546.232 1165.37 546.383 1165.32 546.539 1165.26C550.619 1163.66 553.252 1160.65 552.412 1158.51C551.575 1156.39 547.589 1155.94 543.523 1157.54C543.167 1157.68 542.832 1157.83 542.512 1157.99C542.539 1157.83 542.575 1157.67 542.593 1157.5C543.249 1153.17 541.952 1149.39 539.689 1149.04C537.427 1148.7 535.063 1151.93 534.407 1156.26C534.352 1156.63 534.312 1157 534.283 1157.36C534.157 1157.25 534.032 1157.14 533.905 1157.04C530.487 1154.31 526.552 1153.54 525.121 1155.33C523.699 1157.11 525.311 1160.78 528.731 1163.51C529.023 1163.75 529.321 1163.96 529.619 1164.16C529.467 1164.22 529.312 1164.27 529.16 1164.33C525.08 1165.93 522.452 1168.95 523.283 1171.08C524.117 1173.21 528.101 1173.65 532.172 1172.05C532.527 1171.91 532.86 1171.76 533.185 1171.6C533.156 1171.76 533.123 1171.93 533.104 1172.09C532.441 1176.43 533.751 1180.21 536.009 1180.55C538.272 1180.89 540.64 1177.66 541.292 1173.33C541.351 1172.96 541.384 1172.6 541.412 1172.24C541.54 1172.34 541.665 1172.45 541.795 1172.56C545.216 1175.29 549.145 1176.05 550.572 1174.27C551.999 1172.48 550.383 1168.82 546.961 1166.09Z" fill="white"/>
<mask id="mask0_7518_484" style="mask-type:luminance" maskUnits="userSpaceOnUse" x="412" y="301" width="822" height="942">
<path d="M1233.99 1242.47H412.849V301.625H1233.99V1242.47Z" fill="white"/>
</mask>
<g mask="url(#mask0_7518_484)">
<path d="M857.575 1055.81L659.996 897.5C659.996 897.5 622.455 901.851 640.244 925.744C658.033 949.639 775.429 1089.79 775.429 1089.79C775.429 1089.79 894.725 1143.06 857.575 1055.81Z" fill="#ED8656"/>
<path d="M632.896 690.344C632.896 690.344 734.288 626.369 676.285 499.703C644.139 429.484 685.56 252.483 807.637 322.908C929.749 393.349 902.899 319.927 971.879 359.221C1040.92 398.531 1067.64 448.781 1052.03 498.487C1036.41 548.156 1031.66 645.741 1074.12 669.488C1116.59 693.228 1318.35 821.913 1165.52 937.652C1012.66 1053.38 522.909 899.275 632.896 690.344Z" fill="#212A53"/>
<path d="M848.312 673.992C812.772 684.503 814.963 694.144 808.673 746.923C799.971 819.977 800.628 921.319 801.571 940.563C802.513 959.808 809.757 1028.9 846.981 1040.58C884.207 1052.26 904.899 1065.13 906.3 991.376C907.703 917.616 904.596 657.344 848.312 673.992Z" fill="#FDA4AF"/>
<path d="M878.056 2126.73C878.056 2126.73 910.755 1865.14 897.129 1799.75C883.505 1734.35 880.781 1693.47 886.231 1660.78C891.68 1628.09 916.204 1213.91 916.204 1213.91L796.311 1072.22H760.888C760.888 1072.22 755.437 1410.1 782.687 1614.46C809.935 1818.82 820.833 2134.9 820.833 2134.9L878.056 2126.73Z" fill="#212A53"/>
<path d="M970.701 1064.04C970.701 1064.04 1060.62 1178.48 1085.14 1282.03C1109.67 1385.57 1158.71 1638.98 1164.17 1658.06C1169.61 1677.13 1210.49 1797.02 1221.39 1826.99C1232.29 1856.97 1298.08 2114.83 1298.08 2114.83L1224.11 2126.73C1224.11 2126.73 1112.39 1854.25 1093.32 1791.58C1074.24 1728.9 1020.65 1652.46 1020.65 1652.46C1020.65 1652.46 869.881 1301.1 834.459 1208.46C799.036 1115.81 796.311 1072.22 796.311 1072.22L970.701 1064.04Z" fill="#4349A6"/>
<path d="M973.425 677.112C973.425 677.112 1029.29 694.824 1040.18 713.897C1051.08 732.972 1030.65 780.657 1003.4 848.777C976.151 916.899 951.627 982.295 978.875 1050.42C1006.12 1118.54 818.499 1156.27 762.356 1123.11C744.032 1112.29 749.988 968.671 749.988 968.671C749.988 968.671 744.539 848.777 741.813 813.355C739.088 777.932 779.961 767.032 815.384 731.608C850.808 696.185 864.432 674.387 864.432 674.387C864.432 674.387 959.801 671.661 973.425 677.112Z" fill="#FCA5A5"/>
<path d="M1017.02 701.636C982.612 715.4 985.688 724.797 984.325 777.932C982.439 851.479 992.499 952.323 995.224 971.395C997.949 990.469 1011.57 1058.59 1049.72 1066.77C1087.87 1074.94 1109.67 1085.84 1104.22 1012.27C1098.77 938.697 1071.52 679.837 1017.02 701.636Z" fill="#FDA4AF"/>
<path d="M703.611 921.593L763.745 918.219C770.493 917.84 773.696 912.121 770.861 905.509L713.888 772.649C711.052 766.037 703.212 760.939 696.463 761.317L636.328 764.689C629.579 765.068 626.376 770.787 629.211 777.399L686.184 910.26C689.019 916.872 696.861 921.972 703.611 921.593Z" fill="#EFF7FD"/>
<path d="M1087.83 1032.02C1087.83 1032.02 1085.79 1055.53 1085.79 1060.63C1085.79 1065.74 1063.31 1071.87 1039.8 1071.87C1016.3 1071.87 842.595 971.736 826.245 964.584C809.896 957.431 772.089 947.213 762.892 946.191C753.696 945.168 746.544 919.624 751.652 903.275C755.033 892.456 758.413 882.98 763.571 879.88C766.208 878.293 769.308 878.375 773.111 880.793C784.351 887.947 829.311 926.776 829.311 926.776C829.311 926.776 934.557 946.191 976.452 964.584C1018.35 982.976 1067.39 1005.46 1087.83 1032.02Z" fill="#F6AB7A"/>
<path d="M709.759 886.925L763.571 879.88L751.652 903.275L758.805 939.039L729.172 944.147C729.172 944.147 725.085 939.039 730.195 936.995C735.303 934.949 742.456 931.885 742.456 931.885C742.456 931.885 728.151 929.841 722.02 928.82C715.889 927.797 714.867 925.755 714.867 922.689C714.867 919.624 720.997 917.58 720.997 917.58C720.997 917.58 709.759 913.493 708.736 910.428C707.715 907.361 705.671 903.275 707.715 900.209C709.759 897.144 706.692 888.969 709.759 886.925Z" fill="#ED8656"/>
<path d="M966.613 543.595C966.613 543.595 948.22 635.557 960.483 668.257C972.744 700.955 876.693 676.432 876.693 676.432C876.693 676.432 880.781 600.816 882.825 584.467C884.868 568.119 966.613 543.595 966.613 543.595Z" fill="#F6AB7A"/>
<path d="M879.296 631.643C880.507 612.132 881.883 592.003 882.825 584.468C884.868 568.119 966.613 543.595 966.613 543.595C966.613 543.595 965.208 550.628 963.437 561.471C961.323 563.453 959.115 565.427 956.811 567.381C936.567 584.556 903.293 626.029 879.296 631.643Z" fill="#ED8656"/>
<path d="M647.881 850.941L673.417 816.563L712.241 780.369C712.241 780.369 717.197 785.796 711.177 794.748C705.157 803.7 682.544 830.011 682.544 830.011L671.44 848.489L669.191 852.233C669.191 852.233 653.42 868.439 647.881 850.941Z" fill="#EFB787"/>
<path d="M668.417 843.904C668.417 843.904 668.14 855.691 670.715 856.535C673.289 857.38 676.877 853.331 682.444 848.981C688.011 844.632 704.412 831.011 704.412 831.011L729.848 815.604C729.848 815.604 727.856 826.827 724.828 830.584C720.547 835.896 709.32 845.924 709.32 845.924L686.372 870.224C686.372 870.224 667.729 885.011 665.645 881.001C663.56 876.992 665.396 870.943 661.369 868.671C657.341 866.399 648.059 858.127 668.417 843.904Z" fill="#EFB787"/>
<path d="M699.363 867.836L715.467 853.643C715.467 853.643 734.145 840.292 735.337 842.584C736.528 844.876 736.528 844.876 736.528 844.876C736.528 844.876 732.515 850.233 726.884 856.44C724.752 858.792 715.012 868.887 712.496 871.196C703.341 879.595 695.712 892.293 694.031 893.167C692.351 894.041 671.935 894.468 699.363 867.836Z" fill="#EFB787"/>
<path d="M638.024 853.885L637.472 819.971L658.647 781.311C658.647 781.311 663.901 787.311 659.405 800.563C654.909 813.816 654.944 815.253 653.561 816.699C652.179 818.147 657.824 839.952 657.824 839.952C657.824 839.952 639.62 861.059 638.024 853.885Z" fill="#EFB787"/>
<path d="M664.099 864.34L646.584 844.34C646.584 844.34 635.536 844.991 636.068 866.545C636.6 888.099 634.259 908.235 634.259 908.235C634.259 908.235 639.691 921.42 648.761 921.069C657.829 920.72 672.311 921.197 682.585 912.217C692.86 903.235 697.673 887.385 699.157 882.497C700.924 876.677 691.896 879.004 688.231 876.536C683.733 873.507 683.913 866.308 680.296 865.38C673.728 863.7 664.099 864.34 664.099 864.34Z" fill="#EFB787"/>
<path d="M964.571 1093.33C964.571 1093.33 989.735 1118.5 1019.09 1178.58C1037.05 1215.36 1056.59 1265.22 1072.88 1330.39C1128.97 1554.74 1140.32 1638.98 1140.32 1638.98C1140.32 1638.98 1208 1826.94 1240.46 1955.74C1278.95 2108.46 1273.16 2084.5 1273.16 2084.5" stroke="#8FB0E1" stroke-width="5.76465" stroke-miterlimit="10"/>
<path d="M923.697 1120.96C923.697 1120.96 966.441 1202.84 1027.03 1196.46" stroke="#8FB0E1" stroke-width="5.76465" stroke-miterlimit="10"/>
<path d="M831.733 451.632C831.733 451.632 825.603 535.42 835.821 559.944C846.039 584.467 850.127 602.86 874.651 600.816C899.173 598.773 938.003 561.988 960.483 547.683C982.963 533.377 999.312 517.027 991.137 496.591C982.963 476.155 972.744 492.504 972.744 498.635C972.744 504.765 909.392 514.984 860.345 484.329C848.091 476.671 829.689 463.893 831.733 451.632Z" fill="#F6AB7A"/>
</g>
<path d="M1192.15 1241.17H303.015" stroke="#8FB0E1" stroke-width="5.76465" stroke-miterlimit="10"/>
<path d="M725.631 318.307C725.631 327.525 733.107 335.004 742.331 335.004H753.455V373.953L792.417 335.004H920.419C929.645 335.004 937.113 327.525 937.113 318.307V179.169C937.113 169.945 929.645 162.469 920.419 162.469H742.331C733.107 162.469 725.631 169.945 725.631 179.169V318.307Z" fill="#445FB5"/>
<path d="M759.023 223.696H903.723V212.563H759.023V223.696Z" fill="white"/>
<path d="M759.023 251.515H903.723V240.393H759.023V251.515Z" fill="white"/>
<path d="M759.023 279.344H903.723V268.212H759.023V279.344Z" fill="white"/>
<path d="M62.5036 624.199V493.297C62.5036 483.607 70.3599 475.748 80.05 475.748H245.677C255.367 475.748 263.223 483.607 263.223 493.297V532.46L289.547 576.312H263.223V624.199C263.223 633.889 255.367 641.745 245.677 641.745H80.05C70.3599 641.745 62.5036 633.889 62.5036 624.199Z" fill="#8FB0E1"/>
<path d="M159.185 534.673C145.235 534.673 133.915 545.989 133.915 559.94C133.915 573.892 145.235 585.207 159.185 585.207C173.136 585.207 184.451 573.892 184.451 559.94C184.451 545.989 173.136 534.673 159.185 534.673ZM218.145 551.517V568.363H200.452C199.356 573.743 197.219 578.725 194.289 583.143L206.827 595.671L194.916 607.581L182.379 595.047C177.964 597.975 172.977 600.113 167.609 601.2V618.897H150.764V601.2C145.392 600.113 140.405 597.975 135.988 595.047L123.454 607.581L111.534 595.671L124.071 583.133C121.149 578.717 119.014 573.733 117.918 568.363H100.224V551.517H117.918C119.014 546.14 121.149 541.152 124.071 536.744L111.534 524.199L123.445 512.289L135.981 524.832C140.405 521.905 145.392 519.771 150.764 518.675V500.983H167.609V518.675C172.977 519.771 177.964 521.905 182.379 524.827L194.916 512.289L206.827 524.199L194.289 536.736C197.219 541.152 199.356 546.14 200.452 551.517H218.145Z" fill="white"/>
<path d="M629.924 388.793L595.335 379.524L560.745 370.257L586.067 344.937L611.387 319.616L620.656 354.204L629.924 388.793Z" fill="#8FB0E1"/>
<path d="M543.451 373.523C518.053 354.503 512.869 318.481 531.908 293.089C550.915 267.669 586.925 262.493 612.337 281.516C637.749 300.535 642.917 336.548 623.903 361.96C604.888 387.364 568.869 392.537 543.451 373.523Z" fill="#8FB0E1"/>
<path d="M570.329 336.203C562.457 336.203 556.083 329.821 556.083 321.953C556.083 314.089 562.457 307.704 570.329 307.704C578.193 307.704 584.575 314.089 584.575 321.953C584.575 329.821 578.193 336.203 570.329 336.203ZM570.329 299.717C558.072 299.717 548.096 309.693 548.096 321.953C548.096 334.209 558.072 344.187 570.329 344.187C582.593 344.187 592.569 334.209 592.569 321.953C592.569 309.693 582.593 299.717 570.329 299.717Z" fill="white"/>
<path d="M600.349 356.861C599.735 356.861 599.112 356.623 598.66 356.132L581.672 338.168C580.773 337.236 580.812 335.761 581.756 334.877C582.687 333.991 584.168 334.029 585.051 334.967L602.039 352.937C602.929 353.868 602.884 355.34 601.947 356.223C601.501 356.653 600.925 356.861 600.349 356.861Z" fill="white"/>
<path d="M600.349 359.388C599.059 359.388 597.768 358.879 596.824 357.869L586.203 346.643C584.36 344.699 584.444 341.624 586.395 339.781C588.345 337.948 591.417 338.027 593.26 339.977L603.873 351.197C605.717 353.144 605.633 356.216 603.689 358.061C602.745 358.949 601.547 359.388 600.349 359.388Z" fill="white"/>
<path d="M511.732 162.045V205.848L562.277 249.661V118.244L511.732 162.045Z" fill="#FDBA74"/>
<path d="M516.787 249.661C516.787 258.032 510 264.824 501.624 264.824H370.207C361.835 264.824 355.043 258.032 355.043 249.661V118.244C355.043 109.861 361.835 103.08 370.207 103.08H501.624C510 103.08 516.787 109.861 516.787 118.244V249.661Z" fill="#FDBA74"/>
<path d="M425.807 158.68V209.224L461.188 183.952L425.807 158.68Z" fill="white"/>
<path d="M332.549 329.991C332.549 377.016 294.427 415.14 247.4 415.14C200.372 415.14 162.249 377.016 162.249 329.991C162.249 282.967 200.372 244.84 247.4 244.84C294.427 244.84 332.549 282.967 332.549 329.991Z" fill="#688ED1"/>
<path d="M286.104 371.235V360.913C286.104 349.515 276.861 340.272 265.461 340.272H229.337C217.937 340.272 208.695 349.515 208.695 360.913V371.235H286.104Z" fill="white"/>
<path d="M265.461 306.728C265.461 296.759 257.373 288.665 247.4 288.665C237.421 288.665 229.337 296.759 229.337 306.728C229.337 316.707 237.421 324.789 247.4 324.789C257.373 324.789 265.461 316.707 265.461 306.728Z" fill="white"/>
<path d="M341.152 272.791C341.152 291.075 326.325 305.901 308.04 305.901C289.751 305.901 274.927 291.075 274.927 272.791C274.927 254.501 289.751 239.675 308.04 239.675C326.325 239.675 341.152 254.501 341.152 272.791Z" fill="#FDBA74"/>
<path d="M68.6833 312.024C73.4115 312.024 77.2489 308.188 77.2489 303.452C77.2489 298.728 73.4115 294.884 68.6833 294.884C63.9563 294.884 60.1131 298.728 60.1131 303.452C60.1131 308.188 63.9563 312.024 68.6833 312.024ZM68.6812 272.885C84.676 272.885 97.6473 285.849 97.6473 301.847C97.6473 317.849 68.6812 361.704 68.6812 361.704C68.6812 361.704 39.7183 317.849 39.7183 301.847C39.7183 285.849 52.6885 272.885 68.6812 272.885Z" fill="#FDBA74"/>
<path d="M46.0104 188.231H184.629V49.6267H46.0104V188.231Z" fill="#5075C3"/>
<path d="M170.92 174.527V63.3266H59.7213V174.527H170.92Z" fill="#A4C8EC"/>
<path d="M129.792 97.5961C129.792 103.069 134.224 107.5 139.689 107.5C145.159 107.5 149.592 103.069 149.592 97.5961C149.592 92.1334 145.159 87.6934 139.689 87.6934C134.224 87.6934 129.792 92.1334 129.792 97.5961Z" fill="#5075C3"/>
<path d="M103.42 118.225L85.6688 140.66L67.9156 163.095H138.924L121.172 140.66L103.42 118.225Z" fill="#5075C3"/>
<path d="M136.767 131.593L124.293 147.343L111.832 163.095H161.685L149.216 147.343L136.767 131.593Z" fill="#5075C3"/>
<path d="M308.503 -0.00671589V27.764C308.503 27.764 310.191 31.12 312.108 31.12C313.245 31.12 314.255 30.5747 314.913 29.74C317.147 26.856 320.635 24.9892 324.565 24.9892C331.3 24.9892 336.757 30.4493 336.757 37.1853C336.757 43.9227 331.3 49.3773 324.565 49.3773C320.635 49.3773 317.147 47.5173 314.913 44.632C314.257 43.8013 313.248 43.2507 312.108 43.2507C310.191 43.2507 308.503 46.6159 308.503 46.6159V74.3747H280.62C278.801 74.5653 277.379 76.0853 277.379 77.952C277.379 79.0947 277.921 80.0986 278.753 80.7719C281.637 82.9986 283.508 86.4839 283.508 90.4106C283.508 97.1559 278.047 102.607 271.309 102.607C264.579 102.607 259.113 97.1559 259.113 90.4106C259.113 86.4839 260.983 83.0079 263.861 80.7719C264.693 80.1039 265.245 79.0973 265.245 77.952C265.245 76.0853 263.819 74.5653 261.999 74.3747H234.12V-0.00671589H308.503Z" fill="#516DBE"/>
<path d="M471.439 438.175C540.843 438.175 597.116 482.52 597.116 537.22C597.116 576.756 567.625 610.773 525.175 626.66C526.007 628.371 526.747 630.133 527.715 631.796C536.024 645.728 548.187 656.281 562.655 663.383C530.581 665.668 500.901 656.067 481.315 635.864C478.048 636.063 474.764 636.267 471.439 636.267C402.049 636.267 345.821 591.919 345.821 537.22C345.821 482.52 402.049 438.175 471.439 438.175Z" fill="white"/>
<path d="M597.1 537.547C596.928 576.944 567.511 610.813 525.175 626.66C526.007 628.371 526.747 630.133 527.715 631.796C536.024 645.728 548.187 656.281 562.655 663.383C530.581 665.668 500.901 656.067 481.315 635.864C478.048 636.063 474.764 636.267 471.439 636.267C402.188 636.267 346.048 592.088 345.821 537.547H597.1Z" fill="#EFF7FD"/>
<path d="M507.515 539.032C507.515 548.757 515.407 556.668 525.175 556.668C534.883 556.668 542.793 548.757 542.793 539.032C542.793 529.295 534.883 521.381 525.175 521.381C515.407 521.381 507.515 529.295 507.515 539.032Z" fill="#8FB0E1"/>
<path d="M453.42 539.032C453.42 548.757 461.32 556.668 471.087 556.668C480.795 556.668 488.696 548.757 488.696 539.032C488.696 529.295 480.795 521.381 471.087 521.381C461.32 521.381 453.42 529.295 453.42 539.032Z" fill="#8FB0E1"/>
<path d="M399.345 539.032C399.345 548.757 407.232 556.668 416.988 556.668C426.709 556.668 434.605 548.757 434.605 539.032C434.605 529.295 426.709 521.381 416.988 521.381C407.232 521.381 399.345 529.295 399.345 539.032Z" fill="#8FB0E1"/>
<path d="M542.635 537.547H507.665C508.428 528.512 515.924 521.381 525.175 521.381C534.38 521.381 541.867 528.512 542.635 537.547Z" fill="#A4C8EC"/>
<path d="M488.545 537.547H453.572C454.343 528.512 461.833 521.381 471.087 521.381C480.296 521.381 487.773 528.512 488.545 537.547Z" fill="#A4C8EC"/>
<path d="M434.455 537.547H399.485C400.252 528.512 407.74 521.381 416.988 521.381C426.205 521.381 433.695 528.512 434.455 537.547Z" fill="#A4C8EC"/>
</svg>
